<svg xmlns="http://www.w3.org/2000/svg" xmlns:xlink="http://www.w3.org/1999/xlink">
  <defs>
    <symbol id="icon-add-task" viewBox="0 0 512 512">
      <path d="M256 112v288M400 256H112"/>
    </symbol>

    <symbol id="icon-controls">
      <path d="M1.5 3a1.5 1.5 0 1 1 0-3 1.5 1.5 0 0 1 0 3zm6 0a1.5 1.5 0 1 1 0-3 1.5 1.5 0 0
      1 0 3zm6 0a1.5 1.5 0 1 1 0-3 1.5 1.5 0 0 1 0 3z" />
    </symbol>
    
    <symbol id="icon-sort--ascending" viewBox="0 0 512 512">
      <path d="M112 268l144 144 144-144M256 392V100" />
    </symbol>

    <symbol id="icon-sort--descending" viewBox="0 0 512 512">
      <path d="M112 244l144-144 144 144M256 120v292" />
    </symbol>
  </defs>
</svg>